<svg class="animated" id="freepik_stories-directing-the-arrow-up" xmlns="http://www.w3.org/2000/svg" viewBox="0 0 500 500" version="1.1" xmlns:xlink="http://www.w3.org/1999/xlink" xmlns:svgjs="http://svgjs.com/svgjs"><style>svg#freepik_stories-directing-the-arrow-up:not(.animated) .animable {opacity: 0;}svg#freepik_stories-directing-the-arrow-up.animated #freepik--arrow-2--inject-4 {animation: 1.5s Infinite  linear floating;animation-delay: 0s;}svg#freepik_stories-directing-the-arrow-up.animated #freepik--arrows-1--inject-4 {animation: 1.5s Infinite  linear floating;animation-delay: 0s;}            @keyframes floating {                0% {                    opacity: 1;                    transform: translateY(0px);                }                50% {                    transform: translateY(-10px);                }                100% {                    opacity: 1;                    transform: translateY(0px);                }            }        </style><g id="freepik--Floor--inject-4" class="animable" style="transform-origin: 251.23px 345.34px;"><ellipse id="freepik--floor--inject-4" cx="251.23" cy="345.34" rx="231.43" ry="143.29" style="fill: rgb(250, 250, 250); transform-origin: 251.23px 345.34px;" class="animable"></ellipse></g><g id="freepik--Shadow--inject-4" class="animable" style="transform-origin: 152.22px 411.31px;"><ellipse id="freepik--shadow--inject-4" cx="152.22" cy="411.31" rx="80.27" ry="46.34" style="fill: rgb(224, 224, 224); transform-origin: 152.22px 411.31px;" class="animable"></ellipse></g><g id="freepik--Plants--inject-4" class="animable" style="transform-origin: 453.252px 227.56px;"><g id="freepik--plants--inject-4" class="animable" style="transform-origin: 453.252px 227.56px;"><path d="M463.6,208c-2.77,4.85-8.86,11.55-13.14,18.57-5.21,8.55-9,20-9.07,38-3.76-3.57-7.78-7.08-12.05-10.49l-.25-.22a161,161,0,0,1,2.71-32.45c3.11-17.84,14.16-34.94,24.68-36C466.31,184.33,470.51,195.88,463.6,208Z" style="fill: rgb(224, 224, 224); transform-origin: 448.037px 224.955px;" id="el3g69lwhbfc" class="animable"></path><path d="M458.62,192.71c-12.64,10.09-25.1,36.42-24,66.11-.42-.4-.85-.81-1.29-1.21-.72-29.6,11.82-55.78,24.51-65.88a.61.61,0,0,1,.87.09A.62.62,0,0,1,458.62,192.71Z" style="fill: rgb(255, 255, 255); transform-origin: 446.079px 225.204px;" id="elkslxbyzxr6" class="animable"></path><path d="M476.89,230.07c-1.89,6.22-13.9,12.76-21.6,23.13a55.51,55.51,0,0,0-8.57,16.58q-3.93-4.06-8.28-8c1.19-16.76,8.18-27.44,14.37-35,2.2-2.71,8.25-6.47,10.69-7.25C474.34,216,479.16,222.59,476.89,230.07Z" style="fill: rgb(235, 235, 235); transform-origin: 457.94px 244.165px;" id="elekx3vi2hkio" class="animable"></path><path d="M468.2,227.46c-7.61,3.38-21.87,15.61-25.1,38.69L442,265.07c3.45-22.95,17.38-35.07,25.7-38.77a.62.62,0,0,1,.83.32A.64.64,0,0,1,468.2,227.46Z" style="fill: rgb(255, 255, 255); transform-origin: 455.291px 246.197px;" id="elcfbs06xnh6b" class="animable"></path></g></g><g id="freepik--arrows-3--inject-4" class="animable" style="transform-origin: 63.95px 214.82px;"><g id="freepik--Arrows--inject-4" class="animable" style="transform-origin: 63.95px 214.82px;"><g id="freepik--Arrow--inject-4" class="animable" style="transform-origin: 47.22px 214.82px;"><polygon points="37.55 327.72 44.86 331.94 56.89 325 56.89 123.92 64.91 119.29 51.15 101.92 43.84 97.7 29.53 131.28 36.84 135.5 37.55 135.09 37.55 327.72" style="fill: rgb(253, 246, 255); transform-origin: 47.22px 214.82px;" id="elwpffndkltln" class="animable"></polygon><g id="el0eloheui4c5i"><polygon points="37.55 327.72 44.86 331.94 56.89 325 56.89 123.92 64.91 119.29 51.15 101.92 43.84 97.7 29.53 131.28 36.84 135.5 37.55 135.09 37.55 327.72" style="fill: rgb(255, 255, 255); opacity: 0.7; transform-origin: 47.22px 214.82px;" class="animable"></polygon></g><polygon id="freepik--down-arrow--inject-4" points="44.86 331.94 56.89 325 56.89 123.92 64.91 119.29 51.15 101.92 36.84 135.5 44.86 130.87 44.86 331.94" style="fill: rgb(253, 246, 255); transform-origin: 50.875px 216.93px;" class="animable"></polygon><g id="freepik--down-arrow--inject-4"><polygon points="44.86 331.94 56.89 325 56.89 123.92 64.91 119.29 51.15 101.92 36.84 135.5 44.86 130.87 44.86 331.94" style="fill: rgb(255, 255, 255); opacity: 0.5; transform-origin: 50.875px 216.93px;" class="animable"></polygon></g><polygon points="37.55 327.72 44.86 331.94 44.86 130.87 37.55 135.09 37.55 327.72" style="fill: rgb(253, 246, 255); transform-origin: 41.205px 231.405px;" id="elrw40dex0lo" class="animable"></polygon><g id="elbx1f92cv8gf"><polygon points="37.55 327.72 44.86 331.94 44.86 130.87 37.55 135.09 37.55 327.72" style="fill: rgb(255, 255, 255); opacity: 0.3; transform-origin: 41.205px 231.405px;" class="animable"></polygon></g></g><g id="freepik--arrow--inject-4" class="animable" style="transform-origin: 85.115px 237.475px;"><polygon points="77.87 306.56 83.34 309.73 92.36 304.52 92.36 186.58 98.37 183.11 88.06 168.39 82.58 165.22 71.86 192.09 77.33 195.25 77.87 194.95 77.87 306.56" style="fill: rgb(224, 224, 224); transform-origin: 85.115px 237.475px;" id="elb04p09uf3wc" class="animable"></polygon><polygon points="77.33 195.25 88.06 168.39 82.58 165.22 71.86 192.09 77.33 195.25" style="fill: rgb(245, 245, 245); transform-origin: 79.96px 180.235px;" id="elw2zc2gfxjvc" class="animable"></polygon><polygon id="freepik--down-arrow--inject-4" points="83.34 309.73 92.36 304.52 92.36 186.58 98.37 183.11 88.06 168.39 77.33 195.25 83.34 191.78 83.34 309.73" style="fill: rgb(235, 235, 235); transform-origin: 87.85px 239.06px;" class="animable"></polygon></g></g></g><g id="freepik--arrow-2--inject-4" class="animable" style="transform-origin: 306.355px 352.82px;"><g id="freepik--arrow--inject-4" class="animable" style="transform-origin: 306.355px 352.82px;"><polygon points="355.8 435.09 315.26 373.31 339.32 359.42 379.85 421.2 355.8 435.09" style="fill: rgb(69, 90, 100); transform-origin: 347.555px 397.255px;" id="el0yzb2fgtnurb" class="animable"></polygon><polygon points="315.26 373.31 275.2 350.17 299.25 336.28 339.32 359.42 315.26 373.31" style="fill: rgb(55, 71, 79); transform-origin: 307.26px 354.795px;" id="el45g6njrbs4a" class="animable"></polygon><polygon points="299.27 336.28 266.52 286.45 276.16 280.89 239.53 270.55 232.86 305.89 242.47 300.34 275.21 350.17 299.27 336.28" style="fill: rgb(69, 90, 100); transform-origin: 266.065px 310.36px;" id="eluzcqp7f7j" class="animable"></polygon></g></g><g id="freepik--Character--inject-4" class="animable" style="transform-origin: 156.647px 255.018px;"><g id="freepik--character--inject-4" class="animable" style="transform-origin: 156.647px 255.018px;"><g id="freepik--Bottom--inject-4" class="animable" style="transform-origin: 146.38px 348.022px;"><path d="M114.83,401.57a5.61,5.61,0,0,0,.36-3.59,21.49,21.49,0,0,0-2-5c-2.94-6.42-2.61-13.25-.9-20.1.76-3.05,3.87-4.49,6.49-6.08,5.33-3.23,14.13-8.66,14.13-8.66l-12.77-19.3c-8.26,9-18.53,19.29-18.53,19.29l-1.51,1.56c-.36.43-.56.94-.88,1.36a12.69,12.69,0,0,1-1.54,1.48l-3.07,2.93a7.75,7.75,0,0,0-2.23,2.93c-.75,2.19.54,4.48,1.25,6.69,1.14,3.59.72,7.45.81,11.22a14.65,14.65,0,0,0,.34,3,13.15,13.15,0,0,0,2.73,5,29.63,29.63,0,0,0,10.11,8,7.7,7.7,0,0,0,4.19.65A4.15,4.15,0,0,0,114.83,401.57Z" style="fill: rgb(255, 168, 167); transform-origin: 112.532px 370.925px;" id="elr2le6ydbotp" class="animable"></path><path d="M90.74,367.69a8.28,8.28,0,0,0-1.23,3.11c-.27,1.14,2.29,5.63,2.48,7.89s0,3,0,5.92c0,3.24-1,6.6,4,13a24.4,24.4,0,0,0,15.2,9.19,15.88,15.88,0,0,0,7.69-.81,1.93,1.93,0,0,0,.58-2.39C118,401.43,90.74,367.69,90.74,367.69Z" style="fill: rgb(38, 50, 56); transform-origin: 104.572px 387.324px;" id="elbfuw32gxus5" class="animable"></path><path d="M113.94,370.46c.17.79-.38,1.72-.84,3.41a19.4,19.4,0,0,0-.32,7.26c.37,2.28.87,4.54,1.45,6.77a9.87,9.87,0,0,0,3,5.33,11,11,0,0,1,3,3.79c1.15,2.5.37,6.42-1.75,7.4s-6.47,1.18-8.83.56a28.28,28.28,0,0,1-7.36-3.35c-4.31-2.61-8.88-9.62-9.08-13.5s.5-6.74.21-9.68-3.24-7.91-2.64-10.76c.48-1.91,2.61-3.93,3.44-4.59a35,35,0,0,0,4.38-4c1-1.16,2-1.5,3.08-1l-1.51,1.56c-1,3.58-.85,4.32-.7,5.91.19,2.11.91,3,1.22,4.66.75-2.36.74-4.28,2.39-4.69.91-.23,1.86-.28,4.91,1S113.78,369.76,113.94,370.46Z" style="fill: rgb(69, 90, 100); transform-origin: 105.73px 381.605px;" id="elqr971zbhbg" class="animable"></path><path d="M118.26,394.23a1.29,1.29,0,0,1-1.2.27,3.06,3.06,0,0,1-1.73-1.34,10.54,10.54,0,0,1-.78-3s-1-1.12-4.63-1.12a22.87,22.87,0,0,0-6.22.69s.24,1.51.25,2.1c0,1.39-.47,2.82-1.58,3.19-2,.66-5-1.57-6.05-2.88a15.27,15.27,0,0,1-2.58-5.69,16.77,16.77,0,0,1-.49-2.6,39.53,39.53,0,0,0-.08,4.29c.2,3.88,4.77,10.89,9.08,13.5a28.28,28.28,0,0,0,7.36,3.35c2.36.62,6.63.48,8.83-.56s2.9-4.9,1.75-7.4A10.12,10.12,0,0,0,118.26,394.23Z" style="fill: rgb(55, 71, 79); transform-origin: 106.941px 394.605px;" id="eli437gpzt1f" class="animable"></path><path d="M113.92,390a3.29,3.29,0,0,0,1.83,1.67.07.07,0,0,0,0-.05,11.45,11.45,0,0,1-1.53-3.69c-.58-2.23-1.08-4.49-1.45-6.77a19,19,0,0,1-.16-4.11h0c-.34.42-.25,1.29-.27,1.79A45.74,45.74,0,0,0,113,387,9.62,9.62,0,0,0,113.92,390Z" style="fill: rgb(55, 71, 79); transform-origin: 114.046px 384.36px;" id="els10pb2omo1" class="animable"></path><path d="M97.52,364.74A17.83,17.83,0,0,1,98,359.8l.6-.66c1-1.16,2-1.5,3.08-1l-1.51,1.56a15,15,0,0,0-.29,5.23c.35,2.39.5,3.69.81,5.34.74,5.46.3,7.54,1.56,12.48s3.41,7.77,2.84,8.29-2.12.5-3.81-3.2-2.45-10.71-2.42-14.18S97.77,368.24,97.52,364.74Z" style="fill: rgb(55, 71, 79); transform-origin: 101.344px 374.599px;" id="elogxb20brjk7" class="animable"></path><path d="M104.22,390.38a.44.44,0,0,0,.3,0,12.16,12.16,0,0,1,9.38.08.52.52,0,0,0,.65-.3.52.52,0,0,0-.31-.65,13.09,13.09,0,0,0-10-.09.51.51,0,0,0-.32.64A.49.49,0,0,0,104.22,390.38Z" style="fill: rgb(38, 50, 56); transform-origin: 109.236px 389.48px;" id="elltfzp1cwtq" class="animable"></path><path d="M102.62,386a.48.48,0,0,0,.29,0,13.59,13.59,0,0,1,10,.47.51.51,0,0,0,.67-.3.52.52,0,0,0-.3-.67,14.58,14.58,0,0,0-10.61-.5.52.52,0,0,0,0,1Z" style="fill: rgb(38, 50, 56); transform-origin: 107.953px 385.37px;" id="el10wq6uuv7s5" class="animable"></path><path d="M101.23,381.33a.58.58,0,0,0,.32,0,15.44,15.44,0,0,1,11.08,1.36.57.57,0,0,0,.49-1,16.53,16.53,0,0,0-11.79-1.45.57.57,0,0,0-.45.67A.56.56,0,0,0,101.23,381.33Z" style="fill: rgb(38, 50, 56); transform-origin: 107.102px 381.226px;" id="elsolh1l1yu6" class="animable"></path><path d="M101,377.17a.55.55,0,0,0,.31,0,15,15,0,0,1,10.81,1.55.56.56,0,1,0,.49-1,16.14,16.14,0,0,0-11.5-1.65.56.56,0,0,0-.11,1.07Z" style="fill: rgb(38, 50, 56); transform-origin: 106.814px 377.234px;" id="elo4hhdci92c" class="animable"></path><path d="M100.72,373.29a.65.65,0,0,0,.31,0c4-.7,7.07-.06,11.25,2a.56.56,0,0,0,.5-1c-4.39-2.2-7.67-2.87-11.94-2.14a.56.56,0,0,0-.12,1.07Z" style="fill: rgb(38, 50, 56); transform-origin: 106.717px 373.601px;" id="el6kvwboo6h23" class="animable"></path><path d="M195.64,240.56s-2,19.51-1.48,25.58c.73,8.15.8,11,1.22,19.25,1.42,27.56,2.06,33.27-3.9,39.65-4.35,4.67-13.74,10.13-18.4,12.45-18.33,9.11-52.36,29.05-52.36,29.05s-4.08.16-8.93-6.22c-4.54-6-3.6-9.36-3.6-9.36s7.85-9.81,19.26-23.86,23.94-19,23.94-19l-9-66.93Z" style="fill: rgb(69, 90, 100); transform-origin: 152.226px 303.55px;" id="ellhx7orc2y2" class="animable"></path><path d="M144.79,258.79l6.6,49.31s-9.34,3.76-19.16,13.67c4.8,11.26,9.57,22.57,9.57,22.57a72.33,72.33,0,0,0-.35,10.29c10.51-5.95,22.87-12.78,31.63-17.14.89-.44,2-1,3.12-1.64-.11-5.67-.72-13.08-1.73-22.27-1.2-10.93-3-30.15-3-30.15,15.41-8.13,14.57-15.31,15.41-22.62l-42.11-2Z" style="fill: rgb(55, 71, 79); transform-origin: 159.555px 306.71px;" id="elhcurq81ddwt" class="animable"></path><path d="M187.34,432.26s-8.41-5-9.22-19.23-1.27-30.94-1.27-30.94l-26.51.42,9.75,34,.72,2.38s-2.41,13.24,8,14.47C174.13,434,187.34,432.26,187.34,432.26Z" style="fill: rgb(255, 168, 167); transform-origin: 168.84px 407.796px;" id="el0vpsxvh6rw2" class="animable"></path><path d="M157.94,432a9,9,0,0,0,1,3.47c.51,1.15,5.64,3.35,7.28,5.17s1.9,2.6,3.82,5.12c2.12,2.79,3.43,6.34,12,8.58s14.15.82,17.76-1.09a9.27,9.27,0,0,0,3.13-3.06s1-4.85-1.73-5.7S157.94,432,157.94,432Z" style="fill: rgb(38, 50, 56); transform-origin: 180.524px 443.742px;" id="elo6iptxp2tul" class="animable"></path><path d="M179.71,419.23c.66.57.79,1.73,1.5,3.48a21,21,0,0,0,4.45,6.46c9.87,9.36,16.66,10.78,17.48,17.46.3,2.44-2.57,5.93-13.17,7-5.41.57-13.91-2.48-16.61-5.7s-4-6.12-6.13-8.46-7.95-4.7-9.29-7.53c-.83-2-.32-5.09,0-6.2a36.87,36.87,0,0,0,1.18-6.26c.07-1.62-.24-2.76,1-3l.75,2.46c1.5,3.7,2.08,4.27,3.25,5.54,1.53,1.69,2.74,2,4.09,3.22-.9-2.53-2.16-4.17-1-5.6.63-.79,1.41-1.44,4.86-2.36S179.11,418.73,179.71,419.23Z" style="fill: rgb(69, 90, 100); transform-origin: 180.325px 435.09px;" id="elprpc9sss3on" class="animable"></path><path d="M190,453.66c-5.41.57-13.91-2.48-16.61-5.71A35.2,35.2,0,0,1,171,444.6c.2.19.39.4.57.56.39.34.79.67,1.21,1a12,12,0,0,0,5.48,2.64c1.81.24,6.27,1,7.54-.89.71-1,.23-2.62-.72-3.78-.4-.49-1.59-1.64-1.59-1.64a19.9,19.9,0,0,1,5.1-3.69c3.55-1.62,3.89-1.26,3.89-1.26a8.57,8.57,0,0,0,2.37,1.6,6.64,6.64,0,0,0,2.71.57,4.3,4.3,0,0,0,1-.23c2.53,1.74,4.53,3.49,4.71,7.15C203.22,449.08,200.64,452.54,190,453.66Z" style="fill: rgb(55, 71, 79); transform-origin: 187.135px 445.617px;" id="elcg9jw8kzuoq" class="animable"></path><path d="M182.87,425.75s0,0,0,0a4.71,4.71,0,0,0,.91,1.69,49.25,49.25,0,0,0,5.92,6.59,6.91,6.91,0,0,1,1.84,2.79,6.65,6.65,0,0,0,.28,1.34.78.78,0,0,0,.8.55A1.46,1.46,0,0,0,194,438a2.11,2.11,0,0,0,0-1.22c-.05-.27-.11-.53-.18-.79a86.26,86.26,0,0,1-8.18-6.79A19.61,19.61,0,0,1,182.87,425.75Z" style="fill: rgb(55, 71, 79); transform-origin: 188.48px 432.233px;" id="el201129cfiio" class="animable"></path><path d="M161.85,425a19.85,19.85,0,0,1-2.85-4.54c0-.35.08-.68.09-1,.07-1.62-.24-2.76,1-3l.75,2.46A16.26,16.26,0,0,0,164,423.7c1.85,1.83,2.83,2.84,4.18,4.07,4.19,4.21,5.17,6.29,9.47,9.72s8,4.46,7.85,5.28-1.49,1.81-5.36-.27-9.09-7.61-11.33-10.62S164.35,427.86,161.85,425Z" style="fill: rgb(55, 71, 79); transform-origin: 172.252px 430.099px;" id="elxm78xi9pss" class="animable"></path><path d="M183.22,442.56a.51.51,0,0,0,.29-.13c3-2.55,5-3.58,9.39-3.78a.56.56,0,0,0,.52-.57.54.54,0,0,0-.57-.52c-4.66.21-6.89,1.33-10,4.05a.54.54,0,0,0,.42.95Z" style="fill: rgb(38, 50, 56); transform-origin: 188.038px 440.062px;" id="elgichaewtwzc" class="animable"></path><path d="M180.07,439.72a.62.62,0,0,0,.28-.14,14.63,14.63,0,0,1,9.88-4.28.55.55,0,0,0,.51-.61.57.57,0,0,0-.61-.51,15.74,15.74,0,0,0-10.52,4.57.56.56,0,0,0-.05.79A.59.59,0,0,0,180.07,439.72Z" style="fill: rgb(38, 50, 56); transform-origin: 185.082px 436.952px;" id="elouogm0yxi3o" class="animable"></path><path d="M176.3,436.92a.64.64,0,0,0,.31-.15,16.62,16.62,0,0,1,11-4.93.62.62,0,0,0-.13-1.23c-5.38.58-8.19,2-11.7,5.25a.62.62,0,0,0,0,.87A.61.61,0,0,0,176.3,436.92Z" style="fill: rgb(38, 50, 56); transform-origin: 181.861px 433.767px;" id="elzwi5jalmlu" class="animable"></path><path d="M173.13,433.47a.57.57,0,0,0,.3-.15,16.21,16.21,0,0,1,10.79-4.73.61.61,0,1,0-.12-1.21,17.44,17.44,0,0,0-11.48,5,.62.62,0,0,0,0,.86A.6.6,0,0,0,173.13,433.47Z" style="fill: rgb(38, 50, 56); transform-origin: 178.633px 430.421px;" id="elu4g638xy4ha" class="animable"></path><path d="M170,429.86a.52.52,0,0,0,.3-.14c3.35-2.86,6.53-4,11.57-4.31a.63.63,0,0,0,.56-.65.62.62,0,0,0-.65-.56c-5.29.38-8.71,1.57-12.26,4.6a.6.6,0,0,0,.48,1.06Z" style="fill: rgb(38, 50, 56); transform-origin: 175.862px 427.034px;" id="elmrt5g1ujjrg" class="animable"></path><path d="M192.82,240.56s3.8,12.64-2,22.83c-7.67,13.45-19.25,16.88-23.53,17.79,0,0,4.52,33.87,6.16,45.86,1,7.67,1.8,15.91,3.08,41.16.81,16.1,1.9,38.51,1.9,38.51s-3,3.45-11,3.88c-7.47.41-9.89-1.25-9.89-1.25s-11.12-32.91-12.86-45.82a93.42,93.42,0,0,1-.32-18.44c0-5.56-16.21-38.46-19-53.92s-2.1-27.36,3.73-49.84Z" style="fill: rgb(69, 90, 100); transform-origin: 158.909px 325.608px;" id="elatwrsefbjmv" class="animable"></path></g><g id="freepik--Top--inject-4" class="animable" style="transform-origin: 168.214px 159.714px;"><g id="freepik--Arm--inject-4" class="animable" style="transform-origin: 203.22px 127.776px;"><path d="M208,80.72c1.24-2.75,4-8.45,4-12.35,0-4.73-2.09-4.25-2.09-4.25.85-3.92-1-5.43-1.93-5.44a8,8,0,0,0-.12-3c-.38-1.37-2.12-1.07-3.43.22-1.05,1-1.62,4-1.62,4s.46-3.18-.87-3.41-2.85.54-3.7,3c-.58,1.63-.7,4.21-3.38,9.92s-2.39,4.62-3.3.85-2.39-5.14-4.2-5.08c-1.47,0-.66,4.53-.79,8.64a24.39,24.39,0,0,0,1.5,10c1.38,4.29,3.59,5.54,4.39,8,1.83,5.74,9.31,36.44,9.31,36.44s-1.49,4.45-5.31,13.93c-2.46,6.12-6,16.92-10.69,19.77-4.24,16,4.77,32.62,13.18,35.19,1.06-2.35,11.64-27.91,20.29-51.74,1.4-3.85,4-12.58,4.12-15.69s-1.05-6.18-2.25-9.58c-1.3-3.73-11-23.6-13-29.57a14.37,14.37,0,0,1-.05-9.89" style="fill: rgb(255, 168, 167); transform-origin: 204.028px 125.967px;" id="eld9v6nels53i" class="animable"></path><path d="M193.6,97.67c7,2.75,14.46-2.23,15.48-4.33,0,0,8.66,17.1,11.65,24.4,3.59,8.79,4,10.69,1.42,19.82-3.25,11.52-24,63.44-24,63.44-15.66-11.76-19-32.49-12.11-39.55,0,0,2.24-2.26,5.79-9.59s9.56-23.59,9.56-23.59Z" style="fill: rgb(224, 224, 224); transform-origin: 203.22px 147.17px;" id="ela44jx4eynaa" class="animable"></path><path d="M194.8,69.43A44.28,44.28,0,0,0,196.73,65a38.47,38.47,0,0,0,1.36-4.68c.39-1.5,1.23-3.13,2.76-3.52a2.27,2.27,0,0,1,1.1,0,1.07,1.07,0,0,1,.57.82,7.12,7.12,0,0,1,0,2.35.19.19,0,0,0,.17.22A.21.21,0,0,0,203,60a14.15,14.15,0,0,1,.83-2.71,3.62,3.62,0,0,1,1.81-2c.8-.44,1.86-.38,2,.55a7.37,7.37,0,0,1,.11,2.77.24.24,0,0,0,.21.27h0a1.77,1.77,0,0,1,1.15.73,3.38,3.38,0,0,1,.64,1.35,7.17,7.17,0,0,1-.05,3.09.19.19,0,0,0,.16.22h.08c.62-.09,1.21.53,1.44,1.21a7.52,7.52,0,0,1,.41,2.18,13.39,13.39,0,0,1-.56,4.48A62.93,62.93,0,0,1,208,80.72a54.93,54.93,0,0,0,3.48-8.48,14,14,0,0,0,.62-4.56,7.52,7.52,0,0,0-.41-2.3,1.87,1.87,0,0,0-1.86-1.45l.23.23a7.51,7.51,0,0,0,.08-3.27,4,4,0,0,0-.7-1.53,2.18,2.18,0,0,0-1.5-.91l.23.27a8,8,0,0,0-.09-3,1.4,1.4,0,0,0-1.13-1.15,2.5,2.5,0,0,0-1.54.31,4,4,0,0,0-2,2.2,13.93,13.93,0,0,0-.83,2.81L203,60a7,7,0,0,0-.08-2.5,1.38,1.38,0,0,0-.8-1.06,2.49,2.49,0,0,0-1.3,0c-1.74.49-2.56,2.25-3,3.78s-.74,3.16-1.25,4.7A47,47,0,0,1,194.8,69.43Z" style="fill: rgb(242, 143, 143); transform-origin: 203.453px 67.6359px;" id="el9z0k22p4msq" class="animable"></path><path d="M209.79,63.88a3.56,3.56,0,0,0-2.18,2.49,7.86,7.86,0,0,0-.28,1.62,7.65,7.65,0,0,1-.42,1.52,49.91,49.91,0,0,1-2.77,5.82,51.14,51.14,0,0,0,3-5.73,7.48,7.48,0,0,0,.5-1.56,7.47,7.47,0,0,1,.32-1.55,3.14,3.14,0,0,1,2-2.13Z" style="fill: rgb(242, 143, 143); transform-origin: 207.05px 69.605px;" id="elmyvizt08t8n" class="animable"></path><path d="M207.93,58.43a2.06,2.06,0,0,0-1.77,1.23,7.82,7.82,0,0,0-.71,1.94,28.39,28.39,0,0,1-1,3.89A38.64,38.64,0,0,1,203,69.24l-1.75,3.63,1.86-3.58a34.76,34.76,0,0,0,1.56-3.72,27.71,27.71,0,0,0,1.12-3.88,7.13,7.13,0,0,1,.72-1.81,1.6,1.6,0,0,1,1.37-1Z" style="fill: rgb(242, 143, 143); transform-origin: 204.59px 65.65px;" id="el1hzki3f40pd" class="animable"></path><path d="M202.52,59.87c-.61,1.78-1.32,3.53-2.06,5.27s-1.51,3.46-2.41,5.12c1-1.62,1.81-3.32,2.64-5s1.6-3.43,2.3-5.2Z" style="fill: rgb(242, 143, 143); transform-origin: 200.52px 65.065px;" id="el3obxz1tcenk" class="animable"></path><path d="M191.5,70.28c.59,2.44.68,3.75,1.4,2.83h0c-1.32,2.28-2.21,2.76-2.05,1.46a35,35,0,0,0,.36-3.84,9.48,9.48,0,0,0-.57-3A13.87,13.87,0,0,1,191.5,70.28Z" style="fill: rgb(242, 143, 143); transform-origin: 191.77px 71.5056px;" id="el5y6x4xa5uy" class="animable"></path><path d="M195.18,77.89a7.87,7.87,0,0,1,5.16-.09c.11,0,0,.21-.11.19-2.33-.32-5.17.15-6.72,2.09a13.41,13.41,0,0,0-1.14,1.84c-.09.17-.27.35-.43.26s-.1-.22-.09-.34A4.59,4.59,0,0,1,195.18,77.89Z" style="fill: rgb(242, 143, 143); transform-origin: 196.108px 79.8064px;" id="elqouo7r26n6" class="animable"></path></g><g id="freepik--Chest--inject-4" class="animable" style="transform-origin: 162.673px 213.438px;"><path id="freepik--chest--inject-4" d="M164.77,165.06c-11,.94-17.21,4.26-20.8,2.2-5.44-3.14-7.88,1.32-7.88,1.32s-7.66,13.22-4.57,29.36c1.38,7.17,1.12,20.54.71,24-1.42,12-3.43,18.38-5.85,29.2,0,0,4.05,11.56,35.38,13.58C182,266,194.53,259,194.53,259s3.89-41,4.41-55.92a64.85,64.85,0,0,0-13.13-41c-.11-.12-.36-.07-.36-.07C178.93,164.93,174.74,164.21,164.77,165.06Z" style="fill: rgb(240, 240, 240); transform-origin: 162.673px 213.438px;" class="animable"></path></g><polygon points="168.41 179.21 171.55 176.77 178.16 180.49 180.71 174.21 183.45 176.83 179.8 185.18 168.41 179.21" style="fill: rgb(253, 246, 255); transform-origin: 175.93px 179.695px;" id="eluhh32kyd9v" class="animable"></polygon><g id="elpc4u9x8l4ae"><polygon points="168.41 179.21 171.55 176.77 178.16 180.49 180.71 174.21 183.45 176.83 179.8 185.18 168.41 179.21" style="opacity: 0.2; transform-origin: 175.93px 179.695px;" class="animable"></polygon></g><g id="freepik--Head--inject-4" class="animable" style="transform-origin: 168.41px 147.782px;"><path d="M151.19,126s-2.8.22-4.32,3.88c-1.46,3.51-.39,6.67,3.35,16.59a41,41,0,0,0,5.95,10.77,5,5,0,0,0,3.14,2.06l-.94-7.81-.8-5.42s4-4.4,4-8.36c0-5.09-2.22-7.76-2.22-7.76Z" style="fill: rgb(38, 50, 56); transform-origin: 153.906px 142.65px;" id="elleslzy6v2mi" class="animable"></path><path d="M151.19,126c.35-4.47,5.44-10.25,16.15-11.83,8.78-1.3,14,1.41,17.77,6.1,4.17,5.2,2.16,11.71,2.16,11.71l-27.88.79Z" style="fill: rgb(38, 50, 56); transform-origin: 169.472px 123.307px;" id="elbbzeux8oifv" class="animable"></path><path d="M152.54,152.77a4.64,4.64,0,0,0,5.46-.94l-1.36,15.58c4.35,6,16.44,7.57,21.52,14.31,1.32-3.9,1.4-11.56.15-14.14l.56-6.29a29.83,29.83,0,0,0,3.67-1.06c3.41-1.29,7.26-3.72,7.87-9.24.77-6.87-1.18-13.42-4.26-23-.6-1.85-1.61-3.84-3.43-4.53-4.51-1.73-8.2,1.72-14,4.62-2.39,1.2-8.38,2.2-10,1.6,2.39.75,3.46,6.05.66,9.31,0,.28.86,4.07-.44,4.92-1.46,1-2-1.61-3.86-3.11-1.7-1.39-5.71-2-7,2C146.93,146.06,148.73,151,152.54,152.77Z" style="fill: rgb(255, 168, 167); transform-origin: 169.157px 152.358px;" id="el9ovxvytf2hg" class="animable"></path><path d="M166.86,160a13.9,13.9,0,0,1-7.72-8.5c.28,3,3,9.25,7.41,11.06a28.57,28.57,0,0,0,12,1.72l.27-3C174.16,161.7,169.6,161.34,166.86,160Z" style="fill: rgb(242, 143, 143); transform-origin: 168.98px 157.926px;" id="elk6760yylw" class="animable"></path><path d="M172.71,136.33l-4.27.78a2.28,2.28,0,0,1,1.8-2.59A2.12,2.12,0,0,1,172.71,136.33Z" style="fill: rgb(38, 50, 56); transform-origin: 170.561px 135.799px;" id="elzzgxgstjvrn" class="animable"></path><path d="M184,130.53l-3.1,3.08a2.09,2.09,0,0,1-.06-3A2.3,2.3,0,0,1,184,130.53Z" style="fill: rgb(38, 50, 56); transform-origin: 182.117px 131.775px;" id="elhn6c9kiimoo" class="animable"></path><path d="M176.37,136l3.8,10.7,5.35-3.41A26.45,26.45,0,0,0,176.37,136Z" style="fill: rgb(242, 143, 143); transform-origin: 180.945px 141.35px;" id="elma0ickza3xg" class="animable"></path><path d="M180.37,150.14c0-.06-.05-.12-.21-.15a3.72,3.72,0,0,0-1,.11,5.18,5.18,0,0,1-1.8-.06,4.25,4.25,0,0,1-1.25-.5,4.93,4.93,0,0,1-.53-.36c-.21-.16-.37-.39-.64-.4a.45.45,0,0,0-.47.27.58.58,0,0,0,0,.43,3.68,3.68,0,0,0,1.9,1.28,5.09,5.09,0,0,0,3.09,0C180.18,150.52,180.34,150.33,180.37,150.14Z" style="fill: rgb(177, 102, 104); transform-origin: 177.399px 149.888px;" id="elzbn8ti2pzr" class="animable"></path></g><path d="M173.2,139.82a1.7,1.7,0,1,1-1.77-1.63A1.71,1.71,0,0,1,173.2,139.82Z" style="fill: rgb(38, 50, 56); transform-origin: 171.501px 139.889px;" id="el2o22wjfgsml" class="animable"></path><path d="M185.23,135.73a1.7,1.7,0,1,1-1.76-1.63A1.69,1.69,0,0,1,185.23,135.73Z" style="fill: rgb(38, 50, 56); transform-origin: 183.531px 135.799px;" id="elzk0c8qh61z" class="animable"></path><path d="M178.16,181.72a62.81,62.81,0,0,0-4.26-5.12c-1.35-1.27-6.21-2.93-11-6.18s-6-6.38-6-6.38l.19-2.34s-.49-.43-1.27,1.22c-1.21,2.57-4.41,4.39-4.41,4.39a19.4,19.4,0,0,0,5.76,10.16,35.92,35.92,0,0,0,12.72,7.38,31.48,31.48,0,0,1,2.76-5.37C174.18,177.7,176.67,180.19,178.16,181.72Z" style="fill: rgb(224, 224, 224); transform-origin: 164.785px 173.25px;" id="elru0hpezrk4" class="animable"></path><path d="M178.16,181.72s.55-3.95.71-6.24a31.4,31.4,0,0,0-.56-7.9l.51-5.67s1.94,1.8,2.73,2.44a12.43,12.43,0,0,0,1.5,1.06s1.55,2.05,2.3,6.7a31.5,31.5,0,0,1-.17,10.48s-2.75-5-3.93-5.59S179.43,179.23,178.16,181.72Z" style="fill: rgb(224, 224, 224); transform-origin: 181.934px 172.25px;" id="el39vec02fh5x" class="animable"></path><path d="M177.34,186.16a232.08,232.08,0,0,1-2.68,44.6,74,74,0,0,0,8.25,12.76s4.91-7.54,5-14.16c-1-30.4-7.23-43.68-7.23-43.68Z" style="fill: rgb(253, 246, 255); transform-origin: 181.285px 214.6px;" id="elmp4ib03fiv" class="animable"></path><g id="elfoh6okp0u6d"><path d="M177.34,186.16a232.08,232.08,0,0,1-2.68,44.6,74,74,0,0,0,8.25,12.76s4.91-7.54,5-14.16c-1-30.4-7.23-43.68-7.23-43.68Z" style="opacity: 0.2; transform-origin: 181.285px 214.6px;" class="animable"></path></g><path d="M175.64,179.56a3.86,3.86,0,0,1,4-1.14,9.51,9.51,0,0,1,1.69,3.57,6,6,0,0,1-.66,3.69c-.73.64-1.69.74-3.32.48a5.08,5.08,0,0,1-2-2.25C174.91,182.58,175.64,179.56,175.64,179.56Z" style="fill: rgb(253, 246, 255); transform-origin: 178.299px 182.275px;" id="elk2159j6x01n" class="animable"></path><g id="freepik--arm--inject-4" class="animable" style="transform-origin: 135.743px 133.73px;"><path d="M134.68,91.57c-.93-2.87-3-8.83-2.62-12.7.52-4.7,2.53-4,2.53-4-.43-4,1.62-5.28,2.5-5.2a8,8,0,0,1,.44-2.94c.52-1.32,2.22-.84,3.39.58.93,1.14,1.17,4.18,1.17,4.18s-.12-3.21,1.23-3.29,2.78.83,3.37,3.34c.4,1.68.25,4.25,2.3,10.22s1.89,4.85,3.19,1.2,2.92-4.86,4.72-4.61c1.45.2.17,4.57-.14,8.68a24.21,24.21,0,0,1-2.56,9.76c-1.82,4.12-4.15,5.13-5.21,7.53C146.55,109.82,135.5,137,135.5,137s2.68,11.24,5.81,21c1.66,5.13,3.3,6.88,5.55,10,2.51,16.4-6.18,32.15-14.82,33.81-.8-2.45-10-32-14.64-48.11-1.13-3.94-3.69-11.84-3.48-15s2-6,3.55-9.27c1.7-3.56,13.42-22.29,16.11-28a14.38,14.38,0,0,0,1.1-9.83" style="fill: rgb(255, 168, 167); transform-origin: 135.743px 133.882px;" id="elq5fddoin2bp" class="animable"></path><path d="M149,81.75a46.39,46.39,0,0,1-1.45-4.65,41.22,41.22,0,0,1-.85-4.8c-.22-1.53-.88-3.24-2.37-3.8a2.28,2.28,0,0,0-1.09-.11c-.32.06-.52.41-.65.76a6.91,6.91,0,0,0-.29,2.32.22.22,0,0,1-.2.21.2.2,0,0,1-.2-.18,13.75,13.75,0,0,0-.53-2.79,3.61,3.61,0,0,0-1.6-2.14c-.74-.53-1.81-.58-2,.33a7.52,7.52,0,0,0-.4,2.75.23.23,0,0,1-.23.24h0a1.74,1.74,0,0,0-1.22.6,3.42,3.42,0,0,0-.78,1.28,7,7,0,0,0-.29,3.07.19.19,0,0,1-.17.21h-.08c-.62-.16-1.27.4-1.56,1a7.32,7.32,0,0,0-.65,2.13,13.66,13.66,0,0,0,.08,4.51,62.15,62.15,0,0,0,2.28,8.85,53.7,53.7,0,0,1-2.55-8.8,13.72,13.72,0,0,1-.13-4.61,7.46,7.46,0,0,1,.65-2.24,1.87,1.87,0,0,1,2-1.24l-.25.2a7.52,7.52,0,0,1,.27-3.26,3.87,3.87,0,0,1,.86-1.44,2.19,2.19,0,0,1,1.58-.75l-.25.25a8,8,0,0,1,.4-3,1.42,1.42,0,0,1,1.25-1,2.46,2.46,0,0,1,1.5.47,4.1,4.1,0,0,1,1.76,2.4,15,15,0,0,1,.52,2.89l-.4,0a7.2,7.2,0,0,1,.34-2.47,1.41,1.41,0,0,1,.92-1,2.44,2.44,0,0,1,1.29.14c1.68.67,2.31,2.51,2.53,4.07s.4,3.22.74,4.8A47.81,47.81,0,0,0,149,81.75Z" style="fill: rgb(242, 143, 143); transform-origin: 140.467px 78.5947px;" id="elommtc4d0ofm" class="animable"></path><path d="M134.68,74.63a3.56,3.56,0,0,1,1.9,2.71,7.61,7.61,0,0,1,.1,1.64,7.82,7.82,0,0,0,.26,1.56,50.8,50.8,0,0,0,2.13,6.07,50.35,50.35,0,0,1-2.37-6,8.51,8.51,0,0,1-.33-1.61,7.28,7.28,0,0,0-.15-1.57,3.19,3.19,0,0,0-1.72-2.33Z" style="fill: rgb(242, 143, 143); transform-origin: 136.785px 80.62px;" id="elrdicb9y2qmg" class="animable"></path><path d="M137.11,69.41a2,2,0,0,1,1.62,1.41,7.5,7.5,0,0,1,.5,2,27.71,27.71,0,0,0,.57,4,36.93,36.93,0,0,0,1,3.88l1.35,3.8-1.47-3.76a37.17,37.17,0,0,1-1.15-3.86,28.6,28.6,0,0,1-.7-4,7,7,0,0,0-.52-1.88,1.6,1.6,0,0,0-1.26-1.09Z" style="fill: rgb(242, 143, 143); transform-origin: 139.6px 76.955px;" id="eldur1nf91rn4" class="animable"></path><path d="M142.33,71.42c.42,1.83.94,3.65,1.49,5.46s1.13,3.6,1.85,5.35c-.8-1.72-1.45-3.5-2.09-5.28s-1.23-3.58-1.73-5.41Z" style="fill: rgb(242, 143, 143); transform-origin: 143.76px 76.825px;" id="el4y66c9rcx9" class="animable"></path><path d="M152.18,83c-.84,2.36-1.08,3.65-1.69,2.66h0c1.07,2.41,1.9,3,1.88,1.67a35.67,35.67,0,0,1,0-3.85,9,9,0,0,1,.89-2.91A12.64,12.64,0,0,0,152.18,83Z" style="fill: rgb(242, 143, 143); transform-origin: 151.875px 84.2976px;" id="elqo6fimhl3g" class="animable"></path><path d="M147.71,90.12a8,8,0,0,0-5.12-.64c-.12,0,0,.21.09.21,2.35-.08,5.12.7,6.46,2.79a12.46,12.46,0,0,1,.93,2c.08.17.23.38.4.3s.13-.21.13-.33A4.58,4.58,0,0,0,147.71,90.12Z" style="fill: rgb(242, 143, 143); transform-origin: 146.572px 92.0558px;" id="elzv0edtfswme" class="animable"></path></g><path d="M132.72,102.29c2.49,5.29,9.3,9.39,13.06,9.61l-9,25.66s2.4,9,4.05,15.55c1.8,7.08,4.4,14,7.32,14.79,0,0,5.08,17.42.27,27.9-7.15,15.61-15.87,17.39-15.87,17.39S125,187.62,120.08,170.8s-6.39-22.94-7.33-29.65c-.54-3.9.57-7.89,5-15.15S132.72,102.29,132.72,102.29Z" style="fill: rgb(224, 224, 224); transform-origin: 131.557px 157.74px;" id="elbpo0ryzbqj5" class="animable"></path></g></g></g><g id="freepik--arrows-1--inject-4" class="animable animator-active" style="transform-origin: 316.945px 228.3px;"><g id="freepik--arrow--inject-4" class="animable" style="transform-origin: 316.945px 228.3px;"><polygon points="220.39 39.12 220.49 54.05 204.68 63.3 204.66 48.2 220.39 39.12" style="fill: rgb(253, 246, 255); transform-origin: 212.575px 51.21px;" id="el103jp7evfai8" class="animable"></polygon><g id="elz3rl7vrxrqj"><polygon points="220.39 39.12 220.49 54.05 204.68 63.3 204.66 48.2 220.39 39.12" style="opacity: 0.2; transform-origin: 212.575px 51.21px;" class="animable"></polygon></g><polygon points="444.93 434.35 324.93 251.88 364.2 229.21 484.2 411.68 444.93 434.35" style="fill: rgb(253, 246, 255); transform-origin: 404.565px 331.78px;" id="elwomk4jwio9" class="animable"></polygon><g id="elu6osll270e"><polygon points="444.93 434.35 324.93 251.88 364.2 229.21 484.2 411.68 444.93 434.35" style="fill: rgb(255, 255, 255); opacity: 0.2; transform-origin: 404.565px 331.78px;" class="animable"></polygon></g><polygon points="324.93 251.88 259.52 214.09 298.8 191.41 364.2 229.21 324.93 251.88" style="fill: rgb(253, 246, 255); transform-origin: 311.86px 221.645px;" id="elymhq6uq7lzp" class="animable"></polygon><polygon points="298.82 191.41 204.66 48.2 220.39 39.12 160.59 22.25 149.69 79.93 165.38 70.87 259.55 214.09 298.82 191.41" style="fill: rgb(253, 246, 255); transform-origin: 224.255px 118.17px;" id="el1opu6q03tvj" class="animable"></polygon><g id="elym4cp6orl6h"><polygon points="298.82 191.41 204.66 48.2 220.39 39.12 160.59 22.25 149.69 79.93 165.38 70.87 259.55 214.09 298.82 191.41" style="fill: rgb(255, 255, 255); opacity: 0.2; transform-origin: 224.255px 118.17px;" class="animable"></polygon></g><polygon points="149.69 79.93 149.69 95.05 161.39 88.3 250.7 224.11 317.13 262.46 421.37 420.75 444.93 434.35 324.93 251.88 259.52 214.09 165.38 70.87 149.69 79.93" style="fill: rgb(253, 246, 255); transform-origin: 297.31px 252.61px;" id="ellkrnwii2syc" class="animable"></polygon><g id="el0zy713gpfw8h"><polygon points="149.69 79.93 149.69 95.05 161.39 88.3 250.7 224.11 317.13 262.46 421.37 420.75 444.93 434.35 324.93 251.88 259.52 214.09 165.38 70.87 149.69 79.93" style="opacity: 0.2; transform-origin: 297.31px 252.61px;" class="animable"></polygon></g><g id="el1nrbguro3hx"><polygon points="161.39 88.3 165.38 70.87 149.69 79.93 149.69 95.05 161.39 88.3" style="opacity: 0.2; transform-origin: 157.535px 82.96px;" class="animable"></polygon></g></g></g><g id="freepik--Triangles--inject-4" class="animable" style="transform-origin: 385.765px 135.085px;"><g id="freepik--triangles--inject-4" class="animable" style="transform-origin: 385.765px 135.085px;"><g id="elg0vkqh47qg"><polygon points="354.84 101.81 416.69 137.52 385.76 80.71 354.84 101.81" style="fill: rgb(253, 246, 255); opacity: 0.5; transform-origin: 385.765px 109.115px;" class="animable"></polygon></g><g id="eljz1k8j2f9lj"><polygon points="354.84 127.78 416.69 163.49 385.76 106.68 354.84 127.78" style="fill: rgb(253, 246, 255); opacity: 0.3; transform-origin: 385.765px 135.085px;" class="animable"></polygon></g><g id="el0ci39u9nibl"><polygon points="354.84 153.75 416.69 189.46 385.76 132.65 354.84 153.75" style="fill: rgb(253, 246, 255); opacity: 0.1; transform-origin: 385.765px 161.055px;" class="animable"></polygon></g></g></g><g id="freepik--speech-bubble--inject-4" class="animable" style="transform-origin: 289.469px 88.2964px;"><g id="freepik--speech-bubble--inject-4" class="animable" style="transform-origin: 289.469px 88.2964px;"><g id="freepik--speech-bubble--inject-4" class="animable" style="transform-origin: 289.469px 88.2964px;"><path d="M307,56.32,275.11,74.76c-.63.37-1.14,1.25-1.14,2.95v38a2.44,2.44,0,0,0,1.14,2l4.53,2.58a2.54,2.54,0,0,0,2.28,0l31.88-18.44a2.52,2.52,0,0,0,1.13-2V60.85a2.47,2.47,0,0,0-1.14-2l-4.53-2.58A2.57,2.57,0,0,0,307,56.32Z" style="fill: rgb(253, 246, 255); transform-origin: 294.45px 88.2964px;" id="elg0t1xlnu9ui" class="animable"></path><g id="elmx68jjg3ds"><path d="M281.92,120.21a2.57,2.57,0,0,1-2.28,0l-4.53-2.58a2.41,2.41,0,0,1-1.14-2v-38a4.24,4.24,0,0,1,.4-2.12l6.75,3.89a2.15,2.15,0,0,0-.34,1.12v39C280.78,120.24,281.25,120.6,281.92,120.21Z" style="opacity: 0.15; transform-origin: 277.94px 97.9933px;" class="animable"></path></g><path d="M270.85,105.63c-.72-.43-6.16-3.5-6.34-3.6a1.06,1.06,0,0,1-.22-1.62L274,89.31l6.81,3.9L270.66,104A1.07,1.07,0,0,0,270.85,105.63Z" style="fill: rgb(253, 246, 255); transform-origin: 272.409px 97.47px;" id="elmn6mv7vhii" class="animable"></path><path d="M313.8,60.19,281.92,78.63a2.5,2.5,0,0,0-1.14,2V93.22L270.65,104a1,1,0,0,0,.65,1.74l9.48-.69h0v14.48c0,.72.51,1,1.14.65l31.88-18.44a2.49,2.49,0,0,0,1.13-2V60.85C314.93,60.12,314.43,59.83,313.8,60.19Z" style="fill: rgb(250, 250, 250); transform-origin: 292.626px 90.1829px;" id="el7029vxq29b" class="animable"></path><path d="M313.94,61.25V99.8a1.56,1.56,0,0,1-.64,1.12l-31.52,18.23V104l-1.07.08-9.35.68h0s0,0,0-.05L281.51,93.9l.27-.29v-13a1.53,1.53,0,0,1,.64-1.11l31.52-18.24M314.3,60a1,1,0,0,0-.5.16L281.92,78.63a2.5,2.5,0,0,0-1.14,2V93.22L270.65,104a1,1,0,0,0,.65,1.74l9.48-.69h0v14.48c0,.51.26.81.63.81a1,1,0,0,0,.51-.16l31.88-18.44a2.49,2.49,0,0,0,1.13-2V60.85c0-.52-.25-.82-.63-.82Z" style="fill: rgb(253, 246, 255); transform-origin: 292.626px 90.17px;" id="elpau3f79fb39" class="animable"></path></g><path id="freepik--Check--inject-4" d="M307.88,71.07a2.84,2.84,0,0,0-3.71,1.51l-10.7,25.47-2.55-2.48A2.83,2.83,0,1,0,287,99.63L292.5,105a2.79,2.79,0,0,0,2,.8,3.66,3.66,0,0,0,.57,0,2.83,2.83,0,0,0,2-1.68l12.31-29.29A2.83,2.83,0,0,0,307.88,71.07Z" style="fill: rgb(253, 246, 255); transform-origin: 297.799px 88.3306px;" class="animable"></path></g></g><defs>     <filter id="active" height="200%">         <feMorphology in="SourceAlpha" result="DILATED" operator="dilate" radius="2"></feMorphology>                <feFlood flood-color="#32DFEC" flood-opacity="1" result="PINK"></feFlood>        <feComposite in="PINK" in2="DILATED" operator="in" result="OUTLINE"></feComposite>        <feMerge>            <feMergeNode in="OUTLINE"></feMergeNode>            <feMergeNode in="SourceGraphic"></feMergeNode>        </feMerge>    </filter>    <filter id="hover" height="200%">        <feMorphology in="SourceAlpha" result="DILATED" operator="dilate" radius="2"></feMorphology>                <feFlood flood-color="#ff0000" flood-opacity="0.5" result="PINK"></feFlood>        <feComposite in="PINK" in2="DILATED" operator="in" result="OUTLINE"></feComposite>        <feMerge>            <feMergeNode in="OUTLINE"></feMergeNode>            <feMergeNode in="SourceGraphic"></feMergeNode>        </feMerge>            <feColorMatrix type="matrix" values="0   0   0   0   0                0   1   0   0   0                0   0   0   0   0                0   0   0   1   0 "></feColorMatrix>    </filter></defs></svg>